<mxfile host="app.diagrams.net" modified="2024-05-20T12:45:49.915Z" agent="Mozilla/5.0 (Windows NT 10.0; Win64; x64) AppleWebKit/537.36 (KHTML, like Gecko) Chrome/124.0.0.0 Safari/537.36" etag="jSiYk0PVpZkaC7LFm_7y" version="24.4.4" type="google">
  <diagram name="Página-1" id="Cq7woFWwqZ3aa0rviZcx">
    <mxGraphModel grid="1" page="1" gridSize="10" guides="1" tooltips="1" connect="1" arrows="1" fold="1" pageScale="1" pageWidth="827" pageHeight="1169" math="0" shadow="0">
      <root>
        <mxCell id="0" />
        <mxCell id="1" parent="0" />
        <mxCell id="9biWrI-6LS3gHrVY9xFU-3" style="edgeStyle=orthogonalEdgeStyle;rounded=0;orthogonalLoop=1;jettySize=auto;html=1;" edge="1" parent="1" source="9biWrI-6LS3gHrVY9xFU-1" target="9biWrI-6LS3gHrVY9xFU-2">
          <mxGeometry relative="1" as="geometry" />
        </mxCell>
        <mxCell id="9biWrI-6LS3gHrVY9xFU-1" value="inicio" style="strokeWidth=2;html=1;shape=mxgraph.flowchart.start_1;whiteSpace=wrap;" vertex="1" parent="1">
          <mxGeometry x="364" y="20" width="100" height="60" as="geometry" />
        </mxCell>
        <mxCell id="9biWrI-6LS3gHrVY9xFU-5" style="edgeStyle=orthogonalEdgeStyle;rounded=0;orthogonalLoop=1;jettySize=auto;html=1;" edge="1" parent="1" source="9biWrI-6LS3gHrVY9xFU-2" target="9biWrI-6LS3gHrVY9xFU-4">
          <mxGeometry relative="1" as="geometry" />
        </mxCell>
        <mxCell id="9biWrI-6LS3gHrVY9xFU-2" value="declare:&lt;br&gt;nome_completo, idade, email, curso, nota, mensagem" style="rounded=1;whiteSpace=wrap;html=1;absoluteArcSize=1;arcSize=14;strokeWidth=2;" vertex="1" parent="1">
          <mxGeometry x="321" y="120" width="186" height="90" as="geometry" />
        </mxCell>
        <mxCell id="9biWrI-6LS3gHrVY9xFU-9" style="edgeStyle=orthogonalEdgeStyle;rounded=0;orthogonalLoop=1;jettySize=auto;html=1;" edge="1" parent="1" source="9biWrI-6LS3gHrVY9xFU-4" target="9biWrI-6LS3gHrVY9xFU-6">
          <mxGeometry relative="1" as="geometry" />
        </mxCell>
        <mxCell id="9biWrI-6LS3gHrVY9xFU-4" value="declare:&lt;br&gt;lista de cargos&lt;br&gt;dicionário de cursos" style="rounded=1;whiteSpace=wrap;html=1;absoluteArcSize=1;arcSize=14;strokeWidth=2;" vertex="1" parent="1">
          <mxGeometry x="326" y="260" width="176" height="100" as="geometry" />
        </mxCell>
        <mxCell id="9biWrI-6LS3gHrVY9xFU-8" style="edgeStyle=orthogonalEdgeStyle;rounded=0;orthogonalLoop=1;jettySize=auto;html=1;" edge="1" parent="1" source="9biWrI-6LS3gHrVY9xFU-6" target="9biWrI-6LS3gHrVY9xFU-7">
          <mxGeometry relative="1" as="geometry" />
        </mxCell>
        <mxCell id="9biWrI-6LS3gHrVY9xFU-6" value="nome" style="html=1;strokeWidth=2;shape=manualInput;whiteSpace=wrap;rounded=1;size=26;arcSize=11;" vertex="1" parent="1">
          <mxGeometry x="364" y="420" width="100" height="60" as="geometry" />
        </mxCell>
        <mxCell id="9biWrI-6LS3gHrVY9xFU-10" style="edgeStyle=orthogonalEdgeStyle;rounded=0;orthogonalLoop=1;jettySize=auto;html=1;entryX=0;entryY=0.75;entryDx=0;entryDy=0;" edge="1" parent="1" source="9biWrI-6LS3gHrVY9xFU-7" target="9biWrI-6LS3gHrVY9xFU-6">
          <mxGeometry relative="1" as="geometry">
            <Array as="points">
              <mxPoint x="320" y="575" />
              <mxPoint x="320" y="465" />
            </Array>
          </mxGeometry>
        </mxCell>
        <mxCell id="9biWrI-6LS3gHrVY9xFU-11" value="SIm" style="edgeLabel;html=1;align=center;verticalAlign=middle;resizable=0;points=[];" connectable="0" vertex="1" parent="9biWrI-6LS3gHrVY9xFU-10">
          <mxGeometry x="-0.0211" y="-2" relative="1" as="geometry">
            <mxPoint as="offset" />
          </mxGeometry>
        </mxCell>
        <mxCell id="9biWrI-6LS3gHrVY9xFU-13" style="edgeStyle=orthogonalEdgeStyle;rounded=0;orthogonalLoop=1;jettySize=auto;html=1;" edge="1" parent="1" source="9biWrI-6LS3gHrVY9xFU-7" target="9biWrI-6LS3gHrVY9xFU-12">
          <mxGeometry relative="1" as="geometry" />
        </mxCell>
        <mxCell id="9biWrI-6LS3gHrVY9xFU-14" value="não" style="edgeLabel;html=1;align=center;verticalAlign=middle;resizable=0;points=[];" connectable="0" vertex="1" parent="9biWrI-6LS3gHrVY9xFU-13">
          <mxGeometry x="-0.24" y="-1" relative="1" as="geometry">
            <mxPoint as="offset" />
          </mxGeometry>
        </mxCell>
        <mxCell id="9biWrI-6LS3gHrVY9xFU-7" value="&lt;div&gt;&lt;span style=&quot;background-color: initial;&quot;&gt;comprimento de nome &amp;lt;= 5&lt;/span&gt;&lt;br&gt;&lt;/div&gt;" style="strokeWidth=2;html=1;shape=mxgraph.flowchart.decision;whiteSpace=wrap;" vertex="1" parent="1">
          <mxGeometry x="356" y="530" width="116" height="90" as="geometry" />
        </mxCell>
        <mxCell id="9biWrI-6LS3gHrVY9xFU-16" style="edgeStyle=orthogonalEdgeStyle;rounded=0;orthogonalLoop=1;jettySize=auto;html=1;" edge="1" parent="1" source="9biWrI-6LS3gHrVY9xFU-12" target="9biWrI-6LS3gHrVY9xFU-15">
          <mxGeometry relative="1" as="geometry" />
        </mxCell>
        <mxCell id="9biWrI-6LS3gHrVY9xFU-12" value="email" style="html=1;strokeWidth=2;shape=manualInput;whiteSpace=wrap;rounded=1;size=26;arcSize=11;" vertex="1" parent="1">
          <mxGeometry x="364" y="670" width="100" height="60" as="geometry" />
        </mxCell>
        <mxCell id="9biWrI-6LS3gHrVY9xFU-17" style="edgeStyle=orthogonalEdgeStyle;rounded=0;orthogonalLoop=1;jettySize=auto;html=1;entryX=0;entryY=0.75;entryDx=0;entryDy=0;" edge="1" parent="1" source="9biWrI-6LS3gHrVY9xFU-15" target="9biWrI-6LS3gHrVY9xFU-12">
          <mxGeometry relative="1" as="geometry">
            <Array as="points">
              <mxPoint x="320" y="825" />
              <mxPoint x="320" y="715" />
            </Array>
          </mxGeometry>
        </mxCell>
        <mxCell id="9biWrI-6LS3gHrVY9xFU-20" value="sim" style="edgeLabel;html=1;align=center;verticalAlign=middle;resizable=0;points=[];" connectable="0" vertex="1" parent="9biWrI-6LS3gHrVY9xFU-17">
          <mxGeometry x="-0.02" y="2" relative="1" as="geometry">
            <mxPoint as="offset" />
          </mxGeometry>
        </mxCell>
        <mxCell id="9biWrI-6LS3gHrVY9xFU-19" style="edgeStyle=orthogonalEdgeStyle;rounded=0;orthogonalLoop=1;jettySize=auto;html=1;" edge="1" parent="1" source="9biWrI-6LS3gHrVY9xFU-15" target="9biWrI-6LS3gHrVY9xFU-18">
          <mxGeometry relative="1" as="geometry" />
        </mxCell>
        <mxCell id="9biWrI-6LS3gHrVY9xFU-15" value="email não contém @" style="strokeWidth=2;html=1;shape=mxgraph.flowchart.decision;whiteSpace=wrap;" vertex="1" parent="1">
          <mxGeometry x="366" y="780" width="96" height="90" as="geometry" />
        </mxCell>
        <mxCell id="9biWrI-6LS3gHrVY9xFU-22" style="edgeStyle=orthogonalEdgeStyle;rounded=0;orthogonalLoop=1;jettySize=auto;html=1;" edge="1" parent="1" source="9biWrI-6LS3gHrVY9xFU-18" target="9biWrI-6LS3gHrVY9xFU-21">
          <mxGeometry relative="1" as="geometry" />
        </mxCell>
        <mxCell id="9biWrI-6LS3gHrVY9xFU-18" value="cargo" style="html=1;strokeWidth=2;shape=manualInput;whiteSpace=wrap;rounded=1;size=26;arcSize=11;" vertex="1" parent="1">
          <mxGeometry x="364" y="910" width="100" height="60" as="geometry" />
        </mxCell>
        <mxCell id="9biWrI-6LS3gHrVY9xFU-23" style="edgeStyle=orthogonalEdgeStyle;rounded=0;orthogonalLoop=1;jettySize=auto;html=1;entryX=0;entryY=0.75;entryDx=0;entryDy=0;" edge="1" parent="1" source="9biWrI-6LS3gHrVY9xFU-21" target="9biWrI-6LS3gHrVY9xFU-18">
          <mxGeometry relative="1" as="geometry">
            <Array as="points">
              <mxPoint x="320" y="1060" />
              <mxPoint x="320" y="955" />
            </Array>
          </mxGeometry>
        </mxCell>
        <mxCell id="9biWrI-6LS3gHrVY9xFU-25" style="edgeStyle=orthogonalEdgeStyle;rounded=0;orthogonalLoop=1;jettySize=auto;html=1;" edge="1" parent="1" source="9biWrI-6LS3gHrVY9xFU-21" target="9biWrI-6LS3gHrVY9xFU-24">
          <mxGeometry relative="1" as="geometry" />
        </mxCell>
        <mxCell id="9biWrI-6LS3gHrVY9xFU-21" value="cargo dentro lista de cargos" style="strokeWidth=2;html=1;shape=mxgraph.flowchart.decision;whiteSpace=wrap;" vertex="1" parent="1">
          <mxGeometry x="341" y="1000" width="146" height="120" as="geometry" />
        </mxCell>
        <mxCell id="9biWrI-6LS3gHrVY9xFU-27" style="edgeStyle=orthogonalEdgeStyle;rounded=0;orthogonalLoop=1;jettySize=auto;html=1;" edge="1" parent="1" source="9biWrI-6LS3gHrVY9xFU-24" target="9biWrI-6LS3gHrVY9xFU-26">
          <mxGeometry relative="1" as="geometry" />
        </mxCell>
        <mxCell id="9biWrI-6LS3gHrVY9xFU-24" value="exibir &#39;Primeira fase: &#39;" style="rounded=1;whiteSpace=wrap;html=1;absoluteArcSize=1;arcSize=14;strokeWidth=2;" vertex="1" parent="1">
          <mxGeometry x="364" y="1169" width="100" height="61" as="geometry" />
        </mxCell>
        <mxCell id="9biWrI-6LS3gHrVY9xFU-29" style="edgeStyle=orthogonalEdgeStyle;rounded=0;orthogonalLoop=1;jettySize=auto;html=1;" edge="1" parent="1" source="9biWrI-6LS3gHrVY9xFU-26" target="9biWrI-6LS3gHrVY9xFU-28">
          <mxGeometry relative="1" as="geometry" />
        </mxCell>
        <mxCell id="9biWrI-6LS3gHrVY9xFU-26" value="idade" style="html=1;strokeWidth=2;shape=manualInput;whiteSpace=wrap;rounded=1;size=26;arcSize=11;" vertex="1" parent="1">
          <mxGeometry x="364" y="1280" width="100" height="60" as="geometry" />
        </mxCell>
        <mxCell id="9biWrI-6LS3gHrVY9xFU-30" style="edgeStyle=orthogonalEdgeStyle;rounded=0;orthogonalLoop=1;jettySize=auto;html=1;entryX=0;entryY=0.75;entryDx=0;entryDy=0;" edge="1" parent="1" source="9biWrI-6LS3gHrVY9xFU-28" target="9biWrI-6LS3gHrVY9xFU-26">
          <mxGeometry relative="1" as="geometry">
            <Array as="points">
              <mxPoint x="320" y="1440" />
              <mxPoint x="320" y="1325" />
            </Array>
          </mxGeometry>
        </mxCell>
        <mxCell id="9biWrI-6LS3gHrVY9xFU-31" value="sim" style="edgeLabel;html=1;align=center;verticalAlign=middle;resizable=0;points=[];" connectable="0" vertex="1" parent="9biWrI-6LS3gHrVY9xFU-30">
          <mxGeometry x="0.0542" y="1" relative="1" as="geometry">
            <mxPoint as="offset" />
          </mxGeometry>
        </mxCell>
        <mxCell id="9biWrI-6LS3gHrVY9xFU-33" style="edgeStyle=orthogonalEdgeStyle;rounded=0;orthogonalLoop=1;jettySize=auto;html=1;" edge="1" parent="1" source="9biWrI-6LS3gHrVY9xFU-28" target="9biWrI-6LS3gHrVY9xFU-32">
          <mxGeometry relative="1" as="geometry" />
        </mxCell>
        <mxCell id="9biWrI-6LS3gHrVY9xFU-34" value="não" style="edgeLabel;html=1;align=center;verticalAlign=middle;resizable=0;points=[];" connectable="0" vertex="1" parent="9biWrI-6LS3gHrVY9xFU-33">
          <mxGeometry x="-0.32" y="3" relative="1" as="geometry">
            <mxPoint as="offset" />
          </mxGeometry>
        </mxCell>
        <mxCell id="9biWrI-6LS3gHrVY9xFU-28" value="idade &amp;lt; 0" style="strokeWidth=2;html=1;shape=mxgraph.flowchart.decision;whiteSpace=wrap;" vertex="1" parent="1">
          <mxGeometry x="364" y="1390" width="100" height="100" as="geometry" />
        </mxCell>
        <mxCell id="9biWrI-6LS3gHrVY9xFU-36" style="edgeStyle=orthogonalEdgeStyle;rounded=0;orthogonalLoop=1;jettySize=auto;html=1;" edge="1" parent="1" source="9biWrI-6LS3gHrVY9xFU-32" target="9biWrI-6LS3gHrVY9xFU-35">
          <mxGeometry relative="1" as="geometry" />
        </mxCell>
        <mxCell id="9biWrI-6LS3gHrVY9xFU-37" value="sim" style="edgeLabel;html=1;align=center;verticalAlign=middle;resizable=0;points=[];" connectable="0" vertex="1" parent="9biWrI-6LS3gHrVY9xFU-36">
          <mxGeometry x="-0.1786" relative="1" as="geometry">
            <mxPoint as="offset" />
          </mxGeometry>
        </mxCell>
        <mxCell id="QI7hSkfkDVmMrOL-YrMS-2" style="edgeStyle=orthogonalEdgeStyle;rounded=0;orthogonalLoop=1;jettySize=auto;html=1;" edge="1" parent="1" source="9biWrI-6LS3gHrVY9xFU-32" target="QI7hSkfkDVmMrOL-YrMS-1">
          <mxGeometry relative="1" as="geometry" />
        </mxCell>
        <mxCell id="QI7hSkfkDVmMrOL-YrMS-3" value="não" style="edgeLabel;html=1;align=center;verticalAlign=middle;resizable=0;points=[];" connectable="0" vertex="1" parent="QI7hSkfkDVmMrOL-YrMS-2">
          <mxGeometry x="-0.05" y="4" relative="1" as="geometry">
            <mxPoint x="-4" as="offset" />
          </mxGeometry>
        </mxCell>
        <mxCell id="9biWrI-6LS3gHrVY9xFU-32" value="idade &amp;lt; 18" style="strokeWidth=2;html=1;shape=mxgraph.flowchart.decision;whiteSpace=wrap;" vertex="1" parent="1">
          <mxGeometry x="364" y="1540" width="100" height="100" as="geometry" />
        </mxCell>
        <mxCell id="9biWrI-6LS3gHrVY9xFU-39" style="edgeStyle=orthogonalEdgeStyle;rounded=0;orthogonalLoop=1;jettySize=auto;html=1;" edge="1" parent="1" source="9biWrI-6LS3gHrVY9xFU-35" target="9biWrI-6LS3gHrVY9xFU-38">
          <mxGeometry relative="1" as="geometry" />
        </mxCell>
        <mxCell id="9biWrI-6LS3gHrVY9xFU-35" value="exibir mensagem de obrigado" style="rounded=1;whiteSpace=wrap;html=1;absoluteArcSize=1;arcSize=14;strokeWidth=2;" vertex="1" parent="1">
          <mxGeometry x="520" y="1555" width="100" height="70" as="geometry" />
        </mxCell>
        <mxCell id="9biWrI-6LS3gHrVY9xFU-38" value="fim" style="strokeWidth=2;html=1;shape=mxgraph.flowchart.terminator;whiteSpace=wrap;" vertex="1" parent="1">
          <mxGeometry x="660" y="1560" width="100" height="60" as="geometry" />
        </mxCell>
        <mxCell id="QI7hSkfkDVmMrOL-YrMS-5" style="edgeStyle=orthogonalEdgeStyle;rounded=0;orthogonalLoop=1;jettySize=auto;html=1;" edge="1" parent="1" source="QI7hSkfkDVmMrOL-YrMS-1" target="QI7hSkfkDVmMrOL-YrMS-4">
          <mxGeometry relative="1" as="geometry" />
        </mxCell>
        <mxCell id="QI7hSkfkDVmMrOL-YrMS-1" value="exibir mensagem passou" style="rounded=1;whiteSpace=wrap;html=1;absoluteArcSize=1;arcSize=14;strokeWidth=2;" vertex="1" parent="1">
          <mxGeometry x="364" y="1680" width="100" height="60" as="geometry" />
        </mxCell>
        <mxCell id="QI7hSkfkDVmMrOL-YrMS-7" style="edgeStyle=orthogonalEdgeStyle;rounded=0;orthogonalLoop=1;jettySize=auto;html=1;" edge="1" parent="1" source="QI7hSkfkDVmMrOL-YrMS-4" target="QI7hSkfkDVmMrOL-YrMS-6">
          <mxGeometry relative="1" as="geometry" />
        </mxCell>
        <mxCell id="QI7hSkfkDVmMrOL-YrMS-4" value="curso" style="html=1;strokeWidth=2;shape=manualInput;whiteSpace=wrap;rounded=1;size=26;arcSize=11;" vertex="1" parent="1">
          <mxGeometry x="364" y="1780" width="100" height="60" as="geometry" />
        </mxCell>
        <mxCell id="QI7hSkfkDVmMrOL-YrMS-9" style="edgeStyle=orthogonalEdgeStyle;rounded=0;orthogonalLoop=1;jettySize=auto;html=1;entryX=0;entryY=0.75;entryDx=0;entryDy=0;" edge="1" parent="1" source="QI7hSkfkDVmMrOL-YrMS-6" target="QI7hSkfkDVmMrOL-YrMS-4">
          <mxGeometry relative="1" as="geometry">
            <Array as="points">
              <mxPoint x="320" y="1940" />
              <mxPoint x="320" y="1825" />
            </Array>
          </mxGeometry>
        </mxCell>
        <mxCell id="QI7hSkfkDVmMrOL-YrMS-10" value="sim" style="edgeLabel;html=1;align=center;verticalAlign=middle;resizable=0;points=[];" connectable="0" vertex="1" parent="QI7hSkfkDVmMrOL-YrMS-9">
          <mxGeometry x="-0.0452" relative="1" as="geometry">
            <mxPoint as="offset" />
          </mxGeometry>
        </mxCell>
        <mxCell id="QI7hSkfkDVmMrOL-YrMS-12" style="edgeStyle=orthogonalEdgeStyle;rounded=0;orthogonalLoop=1;jettySize=auto;html=1;" edge="1" parent="1" source="QI7hSkfkDVmMrOL-YrMS-6" target="QI7hSkfkDVmMrOL-YrMS-11">
          <mxGeometry relative="1" as="geometry" />
        </mxCell>
        <mxCell id="QI7hSkfkDVmMrOL-YrMS-6" value="comprimento curso &amp;lt;= 4" style="strokeWidth=2;html=1;shape=mxgraph.flowchart.decision;whiteSpace=wrap;" vertex="1" parent="1">
          <mxGeometry x="364" y="1890" width="100" height="100" as="geometry" />
        </mxCell>
        <mxCell id="QI7hSkfkDVmMrOL-YrMS-16" style="edgeStyle=orthogonalEdgeStyle;rounded=0;orthogonalLoop=1;jettySize=auto;html=1;" edge="1" parent="1" source="QI7hSkfkDVmMrOL-YrMS-11" target="QI7hSkfkDVmMrOL-YrMS-14">
          <mxGeometry relative="1" as="geometry" />
        </mxCell>
        <mxCell id="QI7hSkfkDVmMrOL-YrMS-17" value="sim" style="edgeLabel;html=1;align=center;verticalAlign=middle;resizable=0;points=[];" connectable="0" vertex="1" parent="QI7hSkfkDVmMrOL-YrMS-16">
          <mxGeometry x="-0.2083" y="-1" relative="1" as="geometry">
            <mxPoint as="offset" />
          </mxGeometry>
        </mxCell>
        <mxCell id="QI7hSkfkDVmMrOL-YrMS-20" style="edgeStyle=orthogonalEdgeStyle;rounded=0;orthogonalLoop=1;jettySize=auto;html=1;" edge="1" parent="1" source="QI7hSkfkDVmMrOL-YrMS-11" target="QI7hSkfkDVmMrOL-YrMS-19">
          <mxGeometry relative="1" as="geometry" />
        </mxCell>
        <mxCell id="QI7hSkfkDVmMrOL-YrMS-21" value="não" style="edgeLabel;html=1;align=center;verticalAlign=middle;resizable=0;points=[];" connectable="0" vertex="1" parent="QI7hSkfkDVmMrOL-YrMS-20">
          <mxGeometry x="-0.4074" y="1" relative="1" as="geometry">
            <mxPoint as="offset" />
          </mxGeometry>
        </mxCell>
        <mxCell id="QI7hSkfkDVmMrOL-YrMS-11" value="se curso não estiver dentro&lt;br&gt;do dicionario de cursos" style="strokeWidth=2;html=1;shape=mxgraph.flowchart.decision;whiteSpace=wrap;" vertex="1" parent="1">
          <mxGeometry x="325" y="2030" width="177" height="110" as="geometry" />
        </mxCell>
        <mxCell id="QI7hSkfkDVmMrOL-YrMS-13" style="edgeStyle=orthogonalEdgeStyle;rounded=0;orthogonalLoop=1;jettySize=auto;html=1;" edge="1" parent="1" source="QI7hSkfkDVmMrOL-YrMS-14" target="QI7hSkfkDVmMrOL-YrMS-15">
          <mxGeometry relative="1" as="geometry" />
        </mxCell>
        <mxCell id="QI7hSkfkDVmMrOL-YrMS-14" value="exibir mensagem de obrigado" style="rounded=1;whiteSpace=wrap;html=1;absoluteArcSize=1;arcSize=14;strokeWidth=2;" vertex="1" parent="1">
          <mxGeometry x="550" y="2050" width="100" height="70" as="geometry" />
        </mxCell>
        <mxCell id="QI7hSkfkDVmMrOL-YrMS-15" value="fim" style="strokeWidth=2;html=1;shape=mxgraph.flowchart.terminator;whiteSpace=wrap;" vertex="1" parent="1">
          <mxGeometry x="690" y="2055" width="100" height="60" as="geometry" />
        </mxCell>
        <mxCell id="QI7hSkfkDVmMrOL-YrMS-23" style="edgeStyle=orthogonalEdgeStyle;rounded=0;orthogonalLoop=1;jettySize=auto;html=1;" edge="1" parent="1" source="QI7hSkfkDVmMrOL-YrMS-19" target="QI7hSkfkDVmMrOL-YrMS-22">
          <mxGeometry relative="1" as="geometry" />
        </mxCell>
        <mxCell id="QI7hSkfkDVmMrOL-YrMS-19" value="exibir mensagem passou" style="rounded=1;whiteSpace=wrap;html=1;absoluteArcSize=1;arcSize=14;strokeWidth=2;" vertex="1" parent="1">
          <mxGeometry x="364" y="2180" width="100" height="60" as="geometry" />
        </mxCell>
        <mxCell id="QI7hSkfkDVmMrOL-YrMS-26" style="edgeStyle=orthogonalEdgeStyle;rounded=0;orthogonalLoop=1;jettySize=auto;html=1;" edge="1" parent="1" source="QI7hSkfkDVmMrOL-YrMS-22" target="QI7hSkfkDVmMrOL-YrMS-24">
          <mxGeometry relative="1" as="geometry" />
        </mxCell>
        <mxCell id="QI7hSkfkDVmMrOL-YrMS-22" value="declare resposta, acertou = 0" style="rounded=1;whiteSpace=wrap;html=1;absoluteArcSize=1;arcSize=14;strokeWidth=2;" vertex="1" parent="1">
          <mxGeometry x="364" y="2290" width="100" height="60" as="geometry" />
        </mxCell>
        <mxCell id="QI7hSkfkDVmMrOL-YrMS-28" style="edgeStyle=orthogonalEdgeStyle;rounded=0;orthogonalLoop=1;jettySize=auto;html=1;" edge="1" parent="1" source="QI7hSkfkDVmMrOL-YrMS-24" target="QI7hSkfkDVmMrOL-YrMS-27">
          <mxGeometry relative="1" as="geometry" />
        </mxCell>
        <mxCell id="QI7hSkfkDVmMrOL-YrMS-24" value="exibir pergunta&lt;br&gt;e receber resposta" style="rounded=1;whiteSpace=wrap;html=1;absoluteArcSize=1;arcSize=14;strokeWidth=2;" vertex="1" parent="1">
          <mxGeometry x="364" y="2390" width="100" height="70" as="geometry" />
        </mxCell>
        <mxCell id="QI7hSkfkDVmMrOL-YrMS-30" value="sim" style="edgeStyle=orthogonalEdgeStyle;rounded=0;orthogonalLoop=1;jettySize=auto;html=1;" edge="1" parent="1" source="QI7hSkfkDVmMrOL-YrMS-27" target="QI7hSkfkDVmMrOL-YrMS-29">
          <mxGeometry relative="1" as="geometry" />
        </mxCell>
        <mxCell id="QI7hSkfkDVmMrOL-YrMS-36" style="edgeStyle=orthogonalEdgeStyle;rounded=0;orthogonalLoop=1;jettySize=auto;html=1;" edge="1" parent="1" source="QI7hSkfkDVmMrOL-YrMS-27" target="QI7hSkfkDVmMrOL-YrMS-32">
          <mxGeometry relative="1" as="geometry" />
        </mxCell>
        <mxCell id="QI7hSkfkDVmMrOL-YrMS-27" value="se resposta&lt;br&gt;&amp;nbsp;está correta" style="strokeWidth=2;html=1;shape=mxgraph.flowchart.decision;whiteSpace=wrap;" vertex="1" parent="1">
          <mxGeometry x="364" y="2500" width="100" height="100" as="geometry" />
        </mxCell>
        <mxCell id="QI7hSkfkDVmMrOL-YrMS-53" style="edgeStyle=orthogonalEdgeStyle;rounded=0;orthogonalLoop=1;jettySize=auto;html=1;" edge="1" parent="1" source="QI7hSkfkDVmMrOL-YrMS-29" target="QI7hSkfkDVmMrOL-YrMS-32">
          <mxGeometry relative="1" as="geometry">
            <Array as="points">
              <mxPoint x="280" y="2665" />
            </Array>
          </mxGeometry>
        </mxCell>
        <mxCell id="QI7hSkfkDVmMrOL-YrMS-29" value="acertou += 10" style="rounded=1;whiteSpace=wrap;html=1;absoluteArcSize=1;arcSize=14;strokeWidth=2;" vertex="1" parent="1">
          <mxGeometry x="221" y="2515" width="100" height="70" as="geometry" />
        </mxCell>
        <mxCell id="QI7hSkfkDVmMrOL-YrMS-31" style="edgeStyle=orthogonalEdgeStyle;rounded=0;orthogonalLoop=1;jettySize=auto;html=1;" edge="1" parent="1" source="QI7hSkfkDVmMrOL-YrMS-32" target="QI7hSkfkDVmMrOL-YrMS-34">
          <mxGeometry relative="1" as="geometry" />
        </mxCell>
        <mxCell id="QI7hSkfkDVmMrOL-YrMS-32" value="exibir pergunta&lt;br&gt;e receber resposta" style="rounded=1;whiteSpace=wrap;html=1;absoluteArcSize=1;arcSize=14;strokeWidth=2;" vertex="1" parent="1">
          <mxGeometry x="364" y="2630" width="100" height="70" as="geometry" />
        </mxCell>
        <mxCell id="QI7hSkfkDVmMrOL-YrMS-33" style="edgeStyle=orthogonalEdgeStyle;rounded=0;orthogonalLoop=1;jettySize=auto;html=1;" edge="1" parent="1" source="QI7hSkfkDVmMrOL-YrMS-34" target="QI7hSkfkDVmMrOL-YrMS-35">
          <mxGeometry relative="1" as="geometry" />
        </mxCell>
        <mxCell id="QI7hSkfkDVmMrOL-YrMS-49" value="sim" style="edgeLabel;html=1;align=center;verticalAlign=middle;resizable=0;points=[];" connectable="0" vertex="1" parent="QI7hSkfkDVmMrOL-YrMS-33">
          <mxGeometry x="-0.4286" y="-1" relative="1" as="geometry">
            <mxPoint as="offset" />
          </mxGeometry>
        </mxCell>
        <mxCell id="QI7hSkfkDVmMrOL-YrMS-42" style="edgeStyle=orthogonalEdgeStyle;rounded=0;orthogonalLoop=1;jettySize=auto;html=1;" edge="1" parent="1" target="QI7hSkfkDVmMrOL-YrMS-38">
          <mxGeometry relative="1" as="geometry">
            <mxPoint x="416.0000000000002" y="2840" as="sourcePoint" />
          </mxGeometry>
        </mxCell>
        <mxCell id="QI7hSkfkDVmMrOL-YrMS-34" value="se resposta&lt;br&gt;&amp;nbsp;está correta" style="strokeWidth=2;html=1;shape=mxgraph.flowchart.decision;whiteSpace=wrap;" vertex="1" parent="1">
          <mxGeometry x="364" y="2740" width="100" height="100" as="geometry" />
        </mxCell>
        <mxCell id="QI7hSkfkDVmMrOL-YrMS-54" style="edgeStyle=orthogonalEdgeStyle;rounded=0;orthogonalLoop=1;jettySize=auto;html=1;" edge="1" parent="1" source="QI7hSkfkDVmMrOL-YrMS-35" target="QI7hSkfkDVmMrOL-YrMS-38">
          <mxGeometry relative="1" as="geometry">
            <Array as="points">
              <mxPoint x="280" y="2915" />
            </Array>
          </mxGeometry>
        </mxCell>
        <mxCell id="QI7hSkfkDVmMrOL-YrMS-35" value="acertou += 10" style="rounded=1;whiteSpace=wrap;html=1;absoluteArcSize=1;arcSize=14;strokeWidth=2;" vertex="1" parent="1">
          <mxGeometry x="221" y="2755" width="100" height="70" as="geometry" />
        </mxCell>
        <mxCell id="QI7hSkfkDVmMrOL-YrMS-37" style="edgeStyle=orthogonalEdgeStyle;rounded=0;orthogonalLoop=1;jettySize=auto;html=1;" edge="1" parent="1" source="QI7hSkfkDVmMrOL-YrMS-38" target="QI7hSkfkDVmMrOL-YrMS-40">
          <mxGeometry relative="1" as="geometry" />
        </mxCell>
        <mxCell id="QI7hSkfkDVmMrOL-YrMS-38" value="exibir pergunta&lt;br&gt;e receber resposta" style="rounded=1;whiteSpace=wrap;html=1;absoluteArcSize=1;arcSize=14;strokeWidth=2;" vertex="1" parent="1">
          <mxGeometry x="364" y="2880" width="100" height="70" as="geometry" />
        </mxCell>
        <mxCell id="QI7hSkfkDVmMrOL-YrMS-39" style="edgeStyle=orthogonalEdgeStyle;rounded=0;orthogonalLoop=1;jettySize=auto;html=1;" edge="1" parent="1" source="QI7hSkfkDVmMrOL-YrMS-40" target="QI7hSkfkDVmMrOL-YrMS-41">
          <mxGeometry relative="1" as="geometry" />
        </mxCell>
        <mxCell id="QI7hSkfkDVmMrOL-YrMS-51" value="sim" style="edgeLabel;html=1;align=center;verticalAlign=middle;resizable=0;points=[];" connectable="0" vertex="1" parent="QI7hSkfkDVmMrOL-YrMS-39">
          <mxGeometry x="-0.2381" relative="1" as="geometry">
            <mxPoint as="offset" />
          </mxGeometry>
        </mxCell>
        <mxCell id="QI7hSkfkDVmMrOL-YrMS-48" style="edgeStyle=orthogonalEdgeStyle;rounded=0;orthogonalLoop=1;jettySize=auto;html=1;" edge="1" parent="1" source="QI7hSkfkDVmMrOL-YrMS-40" target="QI7hSkfkDVmMrOL-YrMS-44">
          <mxGeometry relative="1" as="geometry" />
        </mxCell>
        <mxCell id="QI7hSkfkDVmMrOL-YrMS-40" value="se resposta&lt;br&gt;&amp;nbsp;está correta" style="strokeWidth=2;html=1;shape=mxgraph.flowchart.decision;whiteSpace=wrap;" vertex="1" parent="1">
          <mxGeometry x="364" y="2990" width="100" height="100" as="geometry" />
        </mxCell>
        <mxCell id="QI7hSkfkDVmMrOL-YrMS-55" style="edgeStyle=orthogonalEdgeStyle;rounded=0;orthogonalLoop=1;jettySize=auto;html=1;" edge="1" parent="1" source="QI7hSkfkDVmMrOL-YrMS-41" target="QI7hSkfkDVmMrOL-YrMS-44">
          <mxGeometry relative="1" as="geometry">
            <Array as="points">
              <mxPoint x="280" y="3165" />
            </Array>
          </mxGeometry>
        </mxCell>
        <mxCell id="QI7hSkfkDVmMrOL-YrMS-41" value="acertou += 10" style="rounded=1;whiteSpace=wrap;html=1;absoluteArcSize=1;arcSize=14;strokeWidth=2;" vertex="1" parent="1">
          <mxGeometry x="221" y="3005" width="100" height="70" as="geometry" />
        </mxCell>
        <mxCell id="QI7hSkfkDVmMrOL-YrMS-43" style="edgeStyle=orthogonalEdgeStyle;rounded=0;orthogonalLoop=1;jettySize=auto;html=1;" edge="1" parent="1" source="QI7hSkfkDVmMrOL-YrMS-44" target="QI7hSkfkDVmMrOL-YrMS-46">
          <mxGeometry relative="1" as="geometry" />
        </mxCell>
        <mxCell id="QI7hSkfkDVmMrOL-YrMS-44" value="exibir pergunta&lt;br&gt;e receber resposta" style="rounded=1;whiteSpace=wrap;html=1;absoluteArcSize=1;arcSize=14;strokeWidth=2;" vertex="1" parent="1">
          <mxGeometry x="362" y="3130" width="100" height="70" as="geometry" />
        </mxCell>
        <mxCell id="QI7hSkfkDVmMrOL-YrMS-45" style="edgeStyle=orthogonalEdgeStyle;rounded=0;orthogonalLoop=1;jettySize=auto;html=1;" edge="1" parent="1" source="QI7hSkfkDVmMrOL-YrMS-46" target="QI7hSkfkDVmMrOL-YrMS-47">
          <mxGeometry relative="1" as="geometry" />
        </mxCell>
        <mxCell id="QI7hSkfkDVmMrOL-YrMS-52" value="sim" style="edgeLabel;html=1;align=center;verticalAlign=middle;resizable=0;points=[];" connectable="0" vertex="1" parent="QI7hSkfkDVmMrOL-YrMS-45">
          <mxGeometry x="-0.4286" relative="1" as="geometry">
            <mxPoint x="-9" as="offset" />
          </mxGeometry>
        </mxCell>
        <mxCell id="QI7hSkfkDVmMrOL-YrMS-58" style="edgeStyle=orthogonalEdgeStyle;rounded=0;orthogonalLoop=1;jettySize=auto;html=1;" edge="1" parent="1" source="QI7hSkfkDVmMrOL-YrMS-46" target="QI7hSkfkDVmMrOL-YrMS-57">
          <mxGeometry relative="1" as="geometry" />
        </mxCell>
        <mxCell id="QI7hSkfkDVmMrOL-YrMS-46" value="se resposta&lt;br&gt;&amp;nbsp;está correta" style="strokeWidth=2;html=1;shape=mxgraph.flowchart.decision;whiteSpace=wrap;" vertex="1" parent="1">
          <mxGeometry x="362" y="3240" width="100" height="100" as="geometry" />
        </mxCell>
        <mxCell id="QI7hSkfkDVmMrOL-YrMS-59" style="edgeStyle=orthogonalEdgeStyle;rounded=0;orthogonalLoop=1;jettySize=auto;html=1;" edge="1" parent="1" source="QI7hSkfkDVmMrOL-YrMS-47" target="QI7hSkfkDVmMrOL-YrMS-57">
          <mxGeometry relative="1" as="geometry">
            <Array as="points">
              <mxPoint x="280" y="3440" />
            </Array>
          </mxGeometry>
        </mxCell>
        <mxCell id="QI7hSkfkDVmMrOL-YrMS-47" value="acertou += 10" style="rounded=1;whiteSpace=wrap;html=1;absoluteArcSize=1;arcSize=14;strokeWidth=2;" vertex="1" parent="1">
          <mxGeometry x="221" y="3255" width="100" height="70" as="geometry" />
        </mxCell>
        <mxCell id="QI7hSkfkDVmMrOL-YrMS-61" style="edgeStyle=orthogonalEdgeStyle;rounded=0;orthogonalLoop=1;jettySize=auto;html=1;" edge="1" parent="1" source="QI7hSkfkDVmMrOL-YrMS-57" target="QI7hSkfkDVmMrOL-YrMS-60">
          <mxGeometry relative="1" as="geometry" />
        </mxCell>
        <mxCell id="QI7hSkfkDVmMrOL-YrMS-64" value="não" style="edgeLabel;html=1;align=center;verticalAlign=middle;resizable=0;points=[];" connectable="0" vertex="1" parent="QI7hSkfkDVmMrOL-YrMS-61">
          <mxGeometry x="-0.1782" y="-2" relative="1" as="geometry">
            <mxPoint as="offset" />
          </mxGeometry>
        </mxCell>
        <mxCell id="QI7hSkfkDVmMrOL-YrMS-63" style="edgeStyle=orthogonalEdgeStyle;rounded=0;orthogonalLoop=1;jettySize=auto;html=1;" edge="1" parent="1" source="QI7hSkfkDVmMrOL-YrMS-57" target="QI7hSkfkDVmMrOL-YrMS-62">
          <mxGeometry relative="1" as="geometry" />
        </mxCell>
        <mxCell id="QI7hSkfkDVmMrOL-YrMS-65" value="sim" style="edgeLabel;html=1;align=center;verticalAlign=middle;resizable=0;points=[];" connectable="0" vertex="1" parent="QI7hSkfkDVmMrOL-YrMS-63">
          <mxGeometry x="-0.475" y="1" relative="1" as="geometry">
            <mxPoint as="offset" />
          </mxGeometry>
        </mxCell>
        <mxCell id="QI7hSkfkDVmMrOL-YrMS-57" value="Se acertou / 4&lt;br&gt;&amp;nbsp;&amp;gt;= 7" style="strokeWidth=2;html=1;shape=mxgraph.flowchart.decision;whiteSpace=wrap;" vertex="1" parent="1">
          <mxGeometry x="362" y="3390" width="100" height="100" as="geometry" />
        </mxCell>
        <mxCell id="QI7hSkfkDVmMrOL-YrMS-68" style="edgeStyle=orthogonalEdgeStyle;rounded=0;orthogonalLoop=1;jettySize=auto;html=1;" edge="1" parent="1" source="QI7hSkfkDVmMrOL-YrMS-60" target="QI7hSkfkDVmMrOL-YrMS-66">
          <mxGeometry relative="1" as="geometry">
            <Array as="points">
              <mxPoint x="560" y="3680" />
            </Array>
          </mxGeometry>
        </mxCell>
        <mxCell id="QI7hSkfkDVmMrOL-YrMS-60" value="exibir mensagem obrigado" style="rounded=1;whiteSpace=wrap;html=1;absoluteArcSize=1;arcSize=14;strokeWidth=2;" vertex="1" parent="1">
          <mxGeometry x="520" y="3410" width="100" height="60" as="geometry" />
        </mxCell>
        <mxCell id="QI7hSkfkDVmMrOL-YrMS-67" style="edgeStyle=orthogonalEdgeStyle;rounded=0;orthogonalLoop=1;jettySize=auto;html=1;" edge="1" parent="1" source="QI7hSkfkDVmMrOL-YrMS-62" target="QI7hSkfkDVmMrOL-YrMS-66">
          <mxGeometry relative="1" as="geometry" />
        </mxCell>
        <mxCell id="QI7hSkfkDVmMrOL-YrMS-62" value="exibir mensagem que passou" style="rounded=1;whiteSpace=wrap;html=1;absoluteArcSize=1;arcSize=14;strokeWidth=2;" vertex="1" parent="1">
          <mxGeometry x="362" y="3530" width="100" height="60" as="geometry" />
        </mxCell>
        <mxCell id="QI7hSkfkDVmMrOL-YrMS-66" value="fim" style="strokeWidth=2;html=1;shape=mxgraph.flowchart.terminator;whiteSpace=wrap;" vertex="1" parent="1">
          <mxGeometry x="362" y="3650" width="100" height="60" as="geometry" />
        </mxCell>
      </root>
    </mxGraphModel>
  </diagram>
</mxfile>
